<svg xmlns="http://www.w3.org/2000/svg" viewBox="-2 -2 104 107.92" role="img" aria-labelledby="title desc">
  <title id="title">Silueta del estado de Veracruz</title>
  <desc id="desc">Contorno geográfico del estado de Veracruz, México.</desc>
  <!-- Source: open-mexico/mexico-geojson (MIT), copyright Arturo Ortega Rodriguez; derived from SEPOMEX public data. -->
  <path d="M25.65 19.06L25.2 20.02L25.08 20.57L24.68 21.17L24.28 20.93L24.34 20.18L24.72 19.64L25.65 19.06ZM18 4L18.09 5.34L18.45 6.7L18.58 7.67L18.49 7.92L18.86 8.44L19.33 9.72L19.36 10.39L19.79 11.23L19.69 11.98L19.38 12.14L19.87 13.12L19.87 13.74L20.2 15.51L20.54 16.09L20.86 16.19L20.93 17.01L21.29 17.74L21.8 18.29L21.91 18.8L22.37 19.39L23.07 19.34L23.56 19.15L23.97 19.69L23.67 20.65L24.06 21.93L24.84 22.52L24.89 23.34L25.29 23.46L25.28 23.86L25.87 25.59L26.36 26.53L27.13 28.34L27.5 28.97L28.47 30.97L29.08 31.83L29.14 32.21L29.54 32.91L29.75 33.63L29.62 33.86L30.05 35.07L30.66 36.08L32.78 38.17L33.94 39.11L34.49 40.01L36.44 42.03L37.27 42.8L38.02 43.7L39.12 44.73L41.83 47.96L42.34 48.98L43.71 50.52L44.38 51.12L44.55 51.88L44.85 52.21L44.91 52.66L45.28 53.56L45.36 55.04L45.87 55.83L45.7 56.16L45.79 56.65L46.32 57.47L46.98 58.23L46.84 59.57L47.14 60.38L47.05 60.67L47.36 61.53L48.71 62.51L49.66 62.85L49.8 63.38L50.57 63.71L50.71 64.14L51.32 64.72L51.08 65.2L51.24 65.87L51.83 66.37L52.35 66.58L53.72 66.62L53.95 68.5L54.29 69.11L54.47 69.81L55.15 70.51L55.78 70.95L57.36 71.61L57.9 71.76L57.91 72.3L57.1 71.78L56.86 71.84L56.31 71.3L55.88 71.59L55.88 72.07L56.46 72.3L56.09 72.69L55.96 73.28L56.88 73.18L56.82 72.69L57.53 72.49L58.02 72.72L58.19 71.83L58.59 72.24L59.61 72.7L60.44 72.98L61.73 73.25L63.9 73.36L66.65 73.36L67.12 73.29L67.76 73.51L69.19 73.43L69.31 73.73L70.14 74.14L70.27 74.42L71.54 75.18L71.74 75.86L71.99 76.05L72.95 76.39L73.72 76.51L75.22 76.54L76.33 76.73L76.72 77.06L77 77.6L77.17 78.43L77.77 79.01L77.87 79.51L78.17 79.87L78.97 80.35L79.51 81.25L80.07 81.59L80.09 82.27L80.5 83.38L80.99 83.76L81.7 84.09L82.6 84.34L83.23 84.36L84.37 84.16L85.56 84.05L88.03 83.52L91.25 82.7L89.83 83.22L90.23 83.57L89.97 84.15L90.37 84.45L90.27 85L90.46 85.55L90.46 86.57L90.9 87.67L90.95 88.38L90.8 89.43L90.88 89.94L91.24 90.38L91.71 90.65L92.8 90.95L93.22 91.31L93.53 92.14L93.93 92.47L94.84 92.5L95.17 92.94L96.09 93.2L97.14 93.67L97.48 94.03L98.35 96.33L98.48 97.27L98.19 98.02L98.49 98.96L98.48 99.68L98.73 99.92L99.56 100.05L100 100.25L99.64 100.59L98.31 101.3L97.08 102.42L95.56 103.07L95.17 103.36L94.82 103.92L89.39 103.63L80.81 103.11L77.14 102.9L72.45 102.6L72.3 102.51L72.7 101.57L72.2 101.15L72.21 100.4L71.78 99.93L70.14 98.88L68.73 97.45L68.36 96.89L66.88 94.99L66.8 94.53L67.06 94.14L68.22 93.65L68.36 93.14L67.29 92.5L66.96 92.45L66.02 93.27L64.86 93.64L63.93 93.71L63.15 93.96L60.79 95.54L59.66 95.77L58.54 95.66L57.56 96.16L56.03 95.72L55.7 95.32L55.25 94.04L54.32 92.39L54.45 91.52L54.19 90.98L54.76 90.47L55.53 88.53L56.17 87.7L56.34 86.76L55.95 85.36L55.78 84.37L55.55 83.92L55.15 83.59L54.23 83.52L53.55 83.23L52.66 83.37L51.54 82.98L51.1 82.95L50.31 83.42L49.61 83.57L49.01 83.08L49.47 82.63L48.99 82.5L48.4 82.57L47.6 81.16L46.51 80.55L45.83 80.9L45.49 80.83L44.78 80.36L43.95 79.67L43.45 79L43.48 78.72L43.22 77.45L42.98 76.95L43.43 76.01L42.65 75.74L41.75 74.88L41.24 75.33L41.2 75.98L41.59 76.53L41.35 77.25L40.67 78.66L40.43 78.87L40.41 78.63L39.58 77.72L38.98 77.26L37.7 76.76L36.97 76.64L35.88 77.24L35.13 78.02L34.79 78.16L34.01 77.95L33.46 77.36L33.05 76.45L32.55 75.61L32.69 75.05L32.41 74.87L31.76 74.87L29.7 74.22L29.04 73.68L28.76 72.84L28.76 70.62L29.48 69.53L30.21 68.82L30.32 67.99L30.14 65.03L29.87 63.86L30.01 63.18L31.23 63.16L34.2 63.26L34.32 62.74L34.24 61.78L33.87 61.35L32.41 60.81L31.58 60.4L31.01 60.25L30.18 60.21L28.74 59.8L27.61 59.06L27.34 58.74L27.76 58.12L27.78 57.72L27.46 56.93L26.7 55.51L26.89 54.99L27.34 54.81L28.1 52.85L28.62 52.21L28.89 51.49L28.64 50.76L28.8 50.17L29.39 48.8L30.09 46.99L31.32 45.29L31.78 44.79L31.72 44.41L29.85 43.73L28.3 43.39L27.52 43.13L26.9 42.79L26.19 42.57L25.55 43.06L25 44L23.83 45.27L23.33 45.54L22.87 45.39L22.2 44.08L21.78 44L20.59 44.24L20.06 43.83L19.7 42.08L19.58 40.02L19.66 39.11L20.57 38.56L21.56 39.21L21.84 39.24L22.36 38.4L22.96 37.79L23.01 37.41L22.63 36.59L20.89 35.69L20.25 35.07L20.13 34.45L20.41 33.83L19.78 33.39L19.1 33.53L18.98 33.31L19.94 32.75L19.78 32.15L19.95 31.44L19.53 31.4L18.36 31.67L17.43 31.39L17.22 32.14L16.53 32.83L16.47 33.44L15.71 33.99L15.41 34.6L15.16 35.88L14.81 35.83L14.02 35.18L13.37 35.44L12.33 36.65L11.69 37.15L11.17 37.3L10.45 37.7L8.97 39.34L8.32 39.76L7.02 40.19L5.98 41.34L5.59 41.5L4.9 40.71L3.99 38.79L3.99 38.22L4.18 37.26L4.64 36.3L4.79 35.27L4.89 33.61L5.41 33.21L5.65 32.57L7.53 30.98L7.89 30.98L8.94 32L10.07 31.83L10.27 31.37L9.84 30.59L9.87 30.22L10.33 28.96L10.77 28.28L11.76 27.39L11.46 26.64L10.28 25.4L10.24 25.01L9.81 24.65L8.78 24.24L8.22 24.19L7.9 24.69L7.55 24.85L6.52 24.8L5.53 24.32L4.1 23.06L4 22.81L4.35 21.7L4.34 21.11L4.1 20.56L3.44 20.43L3.33 19.41L3.33 17.98L2.61 17.98L2.29 17.82L1.79 16.71L1.59 15.4L1.75 14.77L2.74 14.77L2.7 14.26L3.52 14.3L3.75 13.7L4.24 13.65L4.49 13.29L5.08 13.12L4.92 12.78L3.78 12.04L3.31 11.51L3.14 10.43L2.71 10.04L3 9.59L4.33 9.65L4.65 9.45L4.85 8.96L4.6 7.09L5.44 6.57L6.08 6.46L7.02 6.66L7.41 6.53L7.25 5.84L6.83 5.4L6.48 3.94L5.96 3.41L5.34 3.1L2.49 2.4L0.64 2.43L0.23 2.24L0 1.57L0.75 1.31L1.39 0.83L2.27 0.89L4.65 0.65L5.52 0.81L6.53 1.54L8.08 1.22L7.92 0.72L8.23 0.21L9.11 0.23L9.36 0.05L10.22 0L10.78 0.95L11.68 1.23L12.91 2.1L13.61 2.07L13.98 2.23L14.91 2.99L15.24 3.82L16.44 5.02L16.91 4.9L18 4ZM21.46 12.12L22.52 13.46L24.41 15.08L24.73 15.46L26.13 16.56L26.76 16.94L27.01 17.62L27.09 18.38L26.62 19.72L26.15 20.74L25.46 21.92L25.28 22.76L24.95 23.03L24.94 21.95L24.73 21.58L25.39 20.41L25.36 20.08L25.71 19.78L26.12 19.06L26.01 18.09L25.55 17.54L24.64 16.87L23.84 15.95L23.62 15.41L22.86 14.78L22.55 14.19L21.41 13.11L21.03 12.33L21.46 12.12Z" fill="#0B0B0A" fill-opacity=".055" fill-rule="evenodd" stroke="#0B0B0A" stroke-width=".72" stroke-linejoin="round"/>
</svg>
