<svg xmlns="http://www.w3.org/2000/svg" viewBox="0 0 64 64">
  <rect width="64" height="64" fill="#0B0B0A"/>
  <path fill="#E8E4DA" fill-rule="evenodd" d="M8 52 16.5 12h12L37 52h-9l-1.5-9h-8L17 52H8Zm12-18h5l-2.5-14L20 34Z"/>
  <path fill="#C7F000" fill-rule="evenodd" d="M35 12h12.5C55 12 59 16 59 22.5c0 4.5-2 7.5-5.5 9 4.2 1.2 6.5 4.3 6.5 9.3C60 48 55.5 52 48 52H35V12Zm9 8v8h3c2.3 0 3.5-1.3 3.5-4s-1.2-4-3.5-4h-3Zm0 15v9h3.5c2.5 0 3.8-1.5 3.8-4.5S50 35 47.5 35H44Z"/>
  <rect x="0" y="0" width="5" height="64" fill="#C7F000"/>
</svg>
