<svg width="1200" height="630" viewBox="0 0 1200 630" fill="none" xmlns="http://www.w3.org/2000/svg">
  <defs>
    <linearGradient id="bg" x1="0" y1="0" x2="1200" y2="630" gradientUnits="userSpaceOnUse">
      <stop offset="0" stop-color="#F4EFE5"/>
      <stop offset="1" stop-color="#E8E0D0"/>
    </linearGradient>
    <pattern id="grid" width="68" height="68" patternUnits="userSpaceOnUse">
      <path d="M 68 0 H 0 V 68" fill="none" stroke="#181511" stroke-opacity=".09" stroke-width="1"/>
    </pattern>
    <linearGradient id="bar" x1="0" y1="0" x2="1" y2="1">
      <stop offset="0" stop-color="#DD4A12"/>
      <stop offset=".5" stop-color="#3B6BD6"/>
      <stop offset="1" stop-color="#7A3E8F"/>
    </linearGradient>
  </defs>

  <rect width="1200" height="630" fill="url(#bg)"/>
  <rect width="1200" height="630" fill="url(#grid)" opacity=".55"/>

  <circle cx="170" cy="120" r="120" fill="#DD4A12" fill-opacity=".08"/>
  <circle cx="1040" cy="140" r="130" fill="#3B6BD6" fill-opacity=".08"/>
  <circle cx="930" cy="512" r="150" fill="#7A3E8F" fill-opacity=".06"/>

  <text x="54" y="72" fill="#7A7468" font-family="Arial, Helvetica, sans-serif" font-size="22" letter-spacing="3">Laboratory / Playground</text>
  <rect x="54" y="94" width="148" height="6" rx="3" fill="url(#bar)"/>

  <text x="54" y="200" fill="#181511" font-family="Arial, Helvetica, sans-serif" font-size="92" font-weight="800" letter-spacing="-4">Playground</text>
  <text x="54" y="284" fill="#3B6BD6" font-family="Arial, Helvetica, sans-serif" font-size="92" font-weight="800" letter-spacing="-4">experiments</text>

  <text x="56" y="358" fill="#181511" font-family="Arial, Helvetica, sans-serif" font-size="30">Three.js, shaders, GSAP timelines, particles.</text>
  <text x="56" y="396" fill="#181511" font-family="Arial, Helvetica, sans-serif" font-size="30" font-style="italic" fill-opacity=".84">Bocetos e ideas raras en movimiento.</text>

  <g transform="translate(56 442)">
    <rect x="0" y="0" width="144" height="50" rx="25" fill="#F7F4EE" stroke="#181511" stroke-opacity=".14"/>
    <text x="72" y="32" text-anchor="middle" fill="#181511" font-family="Arial, Helvetica, sans-serif" font-size="18">Three.js</text>
    <rect x="160" y="0" width="112" height="50" rx="25" fill="#F7F4EE" stroke="#181511" stroke-opacity=".14"/>
    <text x="216" y="32" text-anchor="middle" fill="#181511" font-family="Arial, Helvetica, sans-serif" font-size="18">GSAP</text>
    <rect x="288" y="0" width="132" height="50" rx="25" fill="#F7F4EE" stroke="#181511" stroke-opacity=".14"/>
    <text x="354" y="32" text-anchor="middle" fill="#181511" font-family="Arial, Helvetica, sans-serif" font-size="18">WebGL</text>
  </g>

  <g transform="translate(754 186)">
    <rect x="0" y="0" width="340" height="286" rx="22" fill="#F8F5EE" stroke="#181511" stroke-opacity=".12"/>
    <rect x="18" y="18" width="304" height="18" rx="9" fill="#181511" fill-opacity=".88"/>
    <rect x="18" y="50" width="304" height="1" fill="#181511" fill-opacity=".12"/>
    <rect x="18" y="82" width="304" height="1" fill="#181511" fill-opacity=".12"/>
    <rect x="18" y="114" width="304" height="1" fill="#181511" fill-opacity=".12"/>
    <rect x="18" y="146" width="304" height="1" fill="#181511" fill-opacity=".12"/>
    <rect x="18" y="178" width="180" height="1" fill="#181511" fill-opacity=".12"/>
    <circle cx="88" cy="210" r="38" fill="#DD4A12" fill-opacity=".16"/>
    <circle cx="174" cy="210" r="38" fill="#3B6BD6" fill-opacity=".16"/>
    <circle cx="260" cy="210" r="38" fill="#7A3E8F" fill-opacity=".16"/>
    <rect x="18" y="248" width="128" height="12" rx="6" fill="#181511" fill-opacity=".16"/>
  </g>

  <text x="964" y="578" fill="#181511" fill-opacity=".05" font-family="Arial, Helvetica, sans-serif" font-size="224" font-weight="800" letter-spacing="-18">LAB</text>
</svg>
